<?xml version="1.0" encoding="UTF-8"?>
<svg xmlns="http://www.w3.org/2000/svg" version="1.1" width="30px" height="30px" style="shape-rendering:geometricPrecision; text-rendering:geometricPrecision; image-rendering:optimizeQuality; fill-rule:evenodd; clip-rule:evenodd" xmlns:xlink="http://www.w3.org/1999/xlink">
<g><path d="M 6.5,-0.5 C 9.83333,-0.5 13.1667,-0.5 16.5,-0.5C 11.1667,5.5 5.5,11.1667 -0.5,16.5C -0.5,13.1667 -0.5,9.83333 -0.5,6.5C 2.16667,4.5 4.5,2.16667 6.5,-0.5 Z"/></g>
<g><path d="M 23.5,-0.5 C 25.5,-0.5 27.5,-0.5 29.5,-0.5C 29.5,1.16667 29.5,2.83333 29.5,4.5C 27.0365,6.46114 24.7032,8.62781 22.5,11C 19.4459,11.8214 16.4459,11.6548 13.5,10.5C 16.8554,6.81329 20.1887,3.14662 23.5,-0.5 Z"/></g>
<g><path d="M 29.5,12.5 C 29.5,15.8333 29.5,19.1667 29.5,22.5C 26.8333,24.5 24.5,26.8333 22.5,29.5C 19.1667,29.5 15.8333,29.5 12.5,29.5C 17.1667,22.8333 22.8333,17.1667 29.5,12.5 Z"/></g>
<g><path d="M 4.5,29.5 C 2.83333,29.5 1.16667,29.5 -0.5,29.5C -0.5,27.5 -0.5,25.5 -0.5,23.5C 1.96348,21.5389 4.29681,19.3722 6.5,17C 9.55413,16.1786 12.5541,16.3452 15.5,17.5C 11.8114,21.5201 8.14472,25.5201 4.5,29.5 Z"/></g>
</svg>
